<?xml version="1.0" encoding="iso-8859-1"?>
<!-- Generator: Adobe Illustrator 19.0.0, SVG Export Plug-In . SVG Version: 6.00 Build 0)  -->
<svg version="1.1" id="Capa_1" xmlns="http://www.w3.org/2000/svg" xmlns:xlink="http://www.w3.org/1999/xlink" x="0px" y="0px"
	 viewBox="0 0 469.333 469.333" style="enable-background:new 0 0 469.333 469.333;" xml:space="preserve">
<path style="fill:#303C42;" d="M426.667,0h-384C19.135,0,0,19.135,0,42.667v384c0,23.531,19.135,42.667,42.667,42.667h384
	c23.531,0,42.667-19.135,42.667-42.667v-384C469.333,19.135,450.198,0,426.667,0z"/>
<g>
	<path id="SVGCleanerId_0" style="fill:#5C6671;" d="M42.667,21.333h384c11.76,0,21.333,9.573,21.333,21.333v42.667H21.333V42.667
		C21.333,30.906,30.906,21.333,42.667,21.333z"/>
</g>
<g>
	
		<linearGradient id="SVGCleanerId_0_3_" gradientUnits="userSpaceOnUse" x1="-64.5964" y1="625.4609" x2="-47.3174" y2="617.4039" gradientTransform="matrix(21.3333 0 0 -21.3333 1430.1112 13315.2227)">
		<stop  offset="0" style="stop-color:#FFFFFF;stop-opacity:0.2"/>
		<stop  offset="1" style="stop-color:#FFFFFF;stop-opacity:0"/>
	</linearGradient>
	<path id="SVGCleanerId_0_1_" style="fill:url(#SVGCleanerId_0_3_);" d="M42.667,21.333h384c11.76,0,21.333,9.573,21.333,21.333
		v42.667H21.333V42.667C21.333,30.906,30.906,21.333,42.667,21.333z"/>
</g>
<g>
	
		<linearGradient id="SVGCleanerId_0_4_" gradientUnits="userSpaceOnUse" x1="-61.6394" y1="626.9612" x2="-50.4335" y2="615.7543" gradientTransform="matrix(21.3333 0 0 -21.3333 1430.1112 13315.2227)">
		<stop  offset="0" style="stop-color:#FFFFFF;stop-opacity:0.2"/>
		<stop  offset="1" style="stop-color:#FFFFFF;stop-opacity:0"/>
	</linearGradient>
	<path id="SVGCleanerId_0_2_" style="fill:url(#SVGCleanerId_0_4_);" d="M42.667,21.333h384c11.76,0,21.333,9.573,21.333,21.333
		v42.667H21.333V42.667C21.333,30.906,30.906,21.333,42.667,21.333z"/>
</g>
<path style="fill:#FFFFFF;" d="M426.667,448h-384c-11.76,0-21.333-9.573-21.333-21.333v-320H448v320
	C448,438.427,438.427,448,426.667,448z"/>
<g>
	<circle style="fill:#303C42;" cx="53.333" cy="53.333" r="10.667"/>
	<circle style="fill:#303C42;" cx="96" cy="53.333" r="10.667"/>
	<circle style="fill:#303C42;" cx="138.667" cy="53.333" r="10.667"/>
	<path style="fill:#303C42;" d="M189.521,259.833c-3.771-4.542-10.5-5.125-15.021-1.365l-64,53.333
		c-2.438,2.031-3.833,5.031-3.833,8.198c0,3.167,1.396,6.167,3.833,8.198l64,53.333c2,1.656,4.417,2.469,6.833,2.469
		c3.042,0,6.083-1.302,8.188-3.833c3.771-4.531,3.167-11.26-1.354-15.031L134,320l54.167-45.135
		C192.688,271.094,193.292,264.365,189.521,259.833z"/>
	<path style="fill:#303C42;" d="M294.833,258.469c-4.5-3.729-11.229-3.156-15.021,1.365c-3.771,4.531-3.167,11.26,1.354,15.031
		L335.333,320l-54.167,45.135c-4.521,3.771-5.125,10.5-1.354,15.031c2.104,2.531,5.146,3.833,8.188,3.833
		c2.417,0,4.833-0.813,6.833-2.469l64-53.333c2.438-2.031,3.833-5.031,3.833-8.198c0-3.167-1.396-6.167-3.833-8.198L294.833,258.469
		z"/>
	<path style="fill:#303C42;" d="M270.875,235.531c-5.375-2.333-11.667,0.156-14.021,5.604l-64,149.333
		c-2.313,5.406,0.188,11.677,5.604,14c1.375,0.594,2.792,0.865,4.208,0.865c4.125,0,8.063-2.417,9.813-6.469l64-149.333
		C278.792,244.125,276.292,237.854,270.875,235.531z"/>
	<path style="fill:#303C42;" d="M117.333,256c5.896,0,10.667-4.771,10.667-10.667c0-17.646,14.354-32,32-32
		c5.896,0,10.667-4.771,10.667-10.667S165.896,192,160,192c-17.646,0-32-14.354-32-32c0-5.896-4.771-10.667-10.667-10.667
		s-10.667,4.771-10.667,10.667c0,17.646-14.354,32-32,32C68.771,192,64,196.771,64,202.667s4.771,10.667,10.667,10.667
		c17.646,0,32,14.354,32,32C106.667,251.229,111.438,256,117.333,256z"/>
</g>
<path style="fill:#BBDEFB;" d="M117.333,191.969c3.042,4.052,6.646,7.656,10.708,10.698c-4.063,3.042-7.667,6.646-10.708,10.698
	c-3.042-4.052-6.646-7.656-10.708-10.698C110.688,199.625,114.292,196.021,117.333,191.969z"/>
<path style="fill:#303C42;" d="M394.667,213.333c-5.875,0-10.667-4.781-10.667-10.667c0-5.896-4.771-10.667-10.667-10.667
	s-10.667,4.771-10.667,10.667c0,5.885-4.792,10.667-10.667,10.667c-5.896,0-10.667,4.771-10.667,10.667
	c0,5.896,4.771,10.667,10.667,10.667c5.875,0,10.667,4.781,10.667,10.667c0,5.896,4.771,10.667,10.667,10.667
	S384,251.229,384,245.333c0-5.885,4.792-10.667,10.667-10.667c5.896,0,10.667-4.771,10.667-10.667
	C405.333,218.104,400.563,213.333,394.667,213.333z"/>
<linearGradient id="SVGID_1_" gradientUnits="userSpaceOnUse" x1="-68.6888" y1="619.0512" x2="-43.3842" y2="607.2509" gradientTransform="matrix(21.3333 0 0 -21.3333 1430.1112 13315.2227)">
	<stop  offset="0" style="stop-color:#FFFFFF;stop-opacity:0.2"/>
	<stop  offset="1" style="stop-color:#FFFFFF;stop-opacity:0"/>
</linearGradient>
<path style="fill:url(#SVGID_1_);" d="M426.667,0h-384C19.135,0,0,19.135,0,42.667v384c0,23.531,19.135,42.667,42.667,42.667h384
	c23.531,0,42.667-19.135,42.667-42.667v-384C469.333,19.135,450.198,0,426.667,0z"/>
<g>
</g>
<g>
</g>
<g>
</g>
<g>
</g>
<g>
</g>
<g>
</g>
<g>
</g>
<g>
</g>
<g>
</g>
<g>
</g>
<g>
</g>
<g>
</g>
<g>
</g>
<g>
</g>
<g>
</g>
</svg>
